<svg width="17" height="24" viewBox="0 0 17 24" fill="none" xmlns="http://www.w3.org/2000/svg">
<path d="M9.00859 19.139L8.50762 18.8431L8.0028 19.1324L1.3028 22.9718L1.30063 22.9731C1.27016 22.9906 1.2356 22.9999 1.20042 22.9999C1.16525 22.9998 1.1307 22.9906 1.10024 22.973C1.06978 22.9554 1.04448 22.9301 1.02688 22.8996C1.00931 22.8692 1.00004 22.8347 1 22.7996V3.60059C1.00089 2.91115 1.27516 2.25019 1.76267 1.76267C2.25019 1.27516 2.91115 1.00089 3.60059 1H13.1994C13.8888 1.00089 14.5498 1.27516 15.0373 1.76267C15.5248 2.25013 15.799 2.91098 15.8 3.60032C15.8 3.60058 15.8 3.60084 15.8 3.60109L15.8 22.7993C15.8 22.8525 15.7788 22.9035 15.7412 22.9412C15.7035 22.9788 15.6525 23 15.5993 23C15.5653 23 15.5319 22.9913 15.5023 22.9747L9.00859 19.139Z" fill="#FFC700" stroke="#FFC700" stroke-width="2"/>
</svg>
