<svg width="21" height="29" viewBox="0 0 21 29" fill="none" xmlns="http://www.w3.org/2000/svg">
<path d="M19.2371 27.9327L19.2369 27.9326L10.9869 23.3333L10.5 23.0619L10.0131 23.3333L1.76328 27.9324C1.68543 27.9758 1.59465 27.9999 1.50041 27.9998C1.40618 27.9998 1.31543 27.9757 1.23762 27.9322C1.16001 27.8889 1.09976 27.829 1.05963 27.7618C1.0197 27.695 1.00008 27.622 1 27.5497V4.35059C1.00114 3.47344 1.3618 2.62539 2.01448 1.99446C2.66833 1.36241 3.5618 1.00111 4.50058 1H16.4994C17.4382 1.00111 18.3317 1.36241 18.9855 1.99446C19.6383 2.62552 19.999 3.47379 20 4.35113V27.5493C19.9999 27.6576 19.9557 27.7687 19.8653 27.856C19.7738 27.9444 19.6428 27.9999 19.4993 28C19.4053 28 19.3147 27.976 19.2371 27.9327Z" stroke="white" stroke-width="2"/>
</svg>
