<svg width="28" height="28" viewBox="0 0 28 28" fill="none" xmlns="http://www.w3.org/2000/svg">
<g filter="url(#filter0_d_56_330)">
<path d="M19.5626 19.2228C19.4005 19.2228 19.2408 19.1834 19.0973 19.1081L14.0001 16.4284L8.90296 19.1081C8.73778 19.1949 8.55161 19.2338 8.3655 19.2203C8.17938 19.2069 8.00074 19.1416 7.84977 19.0319C7.6988 18.9223 7.58152 18.7726 7.51119 18.5997C7.44086 18.4269 7.42028 18.2378 7.45178 18.0539L8.42542 12.3781L4.30188 8.35911C4.1683 8.22883 4.07382 8.06378 4.02912 7.88261C3.98443 7.70145 3.99129 7.51139 4.04894 7.33393C4.10659 7.15646 4.21273 6.99865 4.35536 6.87834C4.498 6.75804 4.67144 6.68002 4.85608 6.65311L10.5548 5.82498L13.1031 0.661323C13.1952 0.505375 13.3264 0.376135 13.4837 0.286354C13.641 0.196573 13.819 0.149353 14.0001 0.149353C14.1812 0.149353 14.3592 0.196573 14.5165 0.286354C14.6738 0.376135 14.805 0.505375 14.8971 0.661323L17.4454 5.82489L23.1441 6.65302C23.3288 6.67993 23.5022 6.75795 23.6449 6.87825C23.7875 6.99856 23.8936 7.15637 23.9513 7.33384C24.0089 7.5113 24.0158 7.70136 23.9711 7.88252C23.9264 8.06369 23.8319 8.22874 23.6983 8.35902L19.5748 12.378L20.5484 18.0538C20.573 18.1974 20.566 18.3445 20.5278 18.4851C20.4896 18.6256 20.4212 18.7561 20.3273 18.8675C20.2334 18.9788 20.1163 19.0683 19.9842 19.1297C19.8521 19.1911 19.7082 19.2228 19.5626 19.2228L19.5626 19.2228Z" fill="#FFC700"/>
<path d="M23.9513 7.33367C23.8936 7.15624 23.7875 6.99848 23.6448 6.8782C23.5022 6.75792 23.3288 6.67992 23.1442 6.65301L17.4454 5.82488L14.8971 0.661309C14.8103 0.500776 14.6802 0.367747 14.5217 0.277266C14.3632 0.186785 14.1825 0.142462 14.0001 0.149309V16.4284L19.0973 19.1081C19.2625 19.1949 19.4486 19.2338 19.6348 19.2203C19.8209 19.2069 19.9995 19.1416 20.1505 19.0319C20.3014 18.9223 20.4187 18.7725 20.4891 18.5997C20.5594 18.4269 20.58 18.2378 20.5485 18.0539L19.5748 12.3781L23.6984 8.3591C23.832 8.22877 23.9264 8.06368 23.9711 7.88247C24.0158 7.70127 24.009 7.51117 23.9513 7.33367Z" fill="#FFC700"/>
</g>
<defs>
<filter id="filter0_d_56_330" x="0" y="0.148621" width="28.0002" height="27.0743" filterUnits="userSpaceOnUse" color-interpolation-filters="sRGB">
<feFlood flood-opacity="0" result="BackgroundImageFix"/>
<feColorMatrix in="SourceAlpha" type="matrix" values="0 0 0 0 0 0 0 0 0 0 0 0 0 0 0 0 0 0 127 0" result="hardAlpha"/>
<feOffset dy="4"/>
<feGaussianBlur stdDeviation="2"/>
<feComposite in2="hardAlpha" operator="out"/>
<feColorMatrix type="matrix" values="0 0 0 0 0 0 0 0 0 0 0 0 0 0 0 0 0 0 0.25 0"/>
<feBlend mode="normal" in2="BackgroundImageFix" result="effect1_dropShadow_56_330"/>
<feBlend mode="normal" in="SourceGraphic" in2="effect1_dropShadow_56_330" result="shape"/>
</filter>
</defs>
</svg>
