<svg width="28" height="28" viewBox="0 0 25 28" fill="none" xmlns="http://www.w3.org/2000/svg">
<path d="M15.1354 17.9663C15.0003 17.9662 14.8673 17.9334 14.7476 17.8707L10.5 15.6376L6.25236 17.8707C6.11471 17.943 5.95957 17.9754 5.80448 17.9642C5.64938 17.953 5.50052 17.8986 5.37471 17.8072C5.2489 17.7158 5.15117 17.5911 5.09256 17.447C5.03395 17.303 5.0168 17.1454 5.04305 16.9922L5.85441 12.2624L2.41814 8.9132C2.30682 8.80463 2.22808 8.66709 2.19084 8.51611C2.15359 8.36514 2.15931 8.20677 2.20735 8.05888C2.25539 7.91099 2.34384 7.77948 2.4627 7.67922C2.58156 7.57897 2.7261 7.51395 2.87997 7.49153L7.62891 6.80142L9.7525 2.49837C9.82926 2.36842 9.93857 2.26072 10.0696 2.1859C10.2007 2.11108 10.349 2.07173 10.5 2.07173C10.6509 2.07173 10.7992 2.11108 10.9303 2.1859C11.0614 2.26072 11.1707 2.36842 11.2475 2.49837L13.3711 6.80135L18.12 7.49146C18.2739 7.51388 18.4184 7.57889 18.5373 7.67915C18.6561 7.77941 18.7446 7.91091 18.7926 8.0588C18.8407 8.20669 18.8464 8.36507 18.8091 8.51604C18.7719 8.66701 18.6932 8.80455 18.5818 8.91312L15.1456 12.2623L15.9569 16.9921C15.9774 17.1117 15.9716 17.2344 15.9397 17.3515C15.9079 17.4686 15.8509 17.5774 15.7726 17.6702C15.6944 17.763 15.5968 17.8375 15.4867 17.8887C15.3767 17.9398 15.2568 17.9663 15.1354 17.9663L15.1354 17.9663Z" fill="#FFC700"/>
<path d="M18.7926 8.05868C18.7446 7.91082 18.6561 7.77935 18.5373 7.67912C18.4184 7.57889 18.2739 7.51389 18.12 7.49146L13.3711 6.80135L11.2475 2.49838C11.1751 2.3646 11.0668 2.25374 10.9347 2.17834C10.8026 2.10294 10.652 2.066 10.5 2.07171V15.6376L14.7476 17.8707C14.8853 17.943 15.0404 17.9754 15.1955 17.9642C15.3506 17.953 15.4995 17.8986 15.6253 17.8072C15.7511 17.7158 15.8488 17.5911 15.9074 17.447C15.9661 17.303 15.9832 17.1455 15.9569 16.9922L15.1456 12.2624L18.5819 8.9132C18.6932 8.8046 18.7719 8.66702 18.8092 8.51601C18.8464 8.36501 18.8407 8.2066 18.7926 8.05868Z" fill="#888888"/>
</svg>
